<svg width="36" height="37" viewBox="0 0 36 37" fill="none" xmlns="http://www.w3.org/2000/svg">
<path d="M12.6694 0.980469C11.4417 0.980469 10.4924 1.28476 9.76673 1.76646C9.04364 2.24644 8.57113 2.88349 8.26357 3.50668C7.97067 4.10018 7.82355 4.68835 7.74905 5.13721C4.94363 5.24738 2.70199 7.55758 2.70199 10.3899C2.70199 11.7822 3.24361 13.0483 4.12757 13.9889C1.95876 14.4935 0.34668 16.4356 0.34668 18.7598C0.34668 21.0776 1.95 23.0155 4.1099 23.5265C3.23987 24.4645 2.70787 25.7204 2.70787 27.1003C2.70787 29.9326 4.94951 32.2428 7.75493 32.353C7.82943 32.8018 7.97656 33.39 8.26945 33.9835C8.57701 34.6067 9.04952 35.2437 9.7726 35.7237C10.4983 36.2054 11.4476 36.5097 12.6753 36.5097C13.8967 36.5097 14.8463 36.2281 15.5782 35.7822C16.309 35.337 16.7969 34.7438 17.1208 34.1588C17.4433 33.5763 17.6052 32.9986 17.6871 32.5697C17.7283 32.3543 17.7498 32.1736 17.7611 32.0447C17.7667 31.9802 17.7698 31.9285 17.7715 31.8916C17.7723 31.8731 17.7728 31.8583 17.7731 31.8475C17.7733 31.8421 17.7734 31.8377 17.7734 31.8343L17.7735 31.8272L17.7736 27.899H20.8866C21.4364 27.899 21.8792 28.3453 21.8792 28.8917V31.8748C20.9078 32.0918 20.1817 32.959 20.1817 33.9958C20.1817 35.196 21.1547 36.169 22.355 36.169C23.5552 36.169 24.5282 35.196 24.5282 33.9958C24.5282 32.9548 23.7963 32.0848 22.819 31.8722V28.8917C22.819 27.8287 21.9579 26.9593 20.8866 26.9593H17.1718L17.1686 26.9593L17.1585 26.9593H16.8338V26.9714C16.0905 27.026 15.319 27.272 14.7048 27.8528C13.9917 28.527 13.5622 29.5845 13.5622 31.1001C13.5622 31.3596 13.7726 31.57 14.0321 31.57C14.2916 31.57 14.502 31.3596 14.502 31.1001C14.502 29.7612 14.8772 28.9832 15.3505 28.5356C15.7511 28.1568 16.2728 27.9666 16.8338 27.9143V31.8185L16.8338 31.8186L16.8337 31.8219C16.8336 31.827 16.8333 31.8359 16.8327 31.8484C16.8316 31.8732 16.8293 31.9121 16.8249 31.9629C16.816 32.0646 16.7984 32.2134 16.764 32.3934C16.6949 32.7552 16.5598 33.2318 16.2986 33.7036C16.0388 34.1729 15.6564 34.6341 15.0893 34.9796C14.5233 35.3244 13.7475 35.5699 12.6753 35.5699C11.6094 35.5699 10.8458 35.3081 10.2923 34.9408C9.73627 34.5716 9.36336 34.0766 9.11219 33.5676C8.85999 33.0566 8.73485 32.5397 8.67356 32.1465C8.64309 31.951 8.62888 31.7892 8.62228 31.678C8.61898 31.6225 8.6176 31.5799 8.61702 31.5524C8.61674 31.5386 8.61665 31.5286 8.61663 31.5227L8.61663 31.5189L8.61663 31.5169V31.5167L8.61664 31.5163L8.61667 31.5143V31.5113C8.61667 26.6438 12.3584 23.3294 16.0937 23.3294H26.719C27.18 23.3294 27.5544 23.6905 27.5756 24.146C26.5783 24.3432 25.8262 25.2228 25.8262 26.278C25.8262 27.4782 26.7992 28.4512 27.9994 28.4512C29.1997 28.4512 30.1727 27.4782 30.1727 26.278C30.1727 25.2558 29.467 24.3984 28.5162 24.1665C28.5053 23.1823 27.7059 22.3896 26.719 22.3896H16.0937C11.845 22.3896 7.7302 26.0988 7.67741 31.4079C5.42767 31.26 3.64764 29.3873 3.64764 27.1003C3.64764 24.7167 5.58112 22.7832 7.96471 22.7832C8.11212 22.7832 8.25242 22.7887 8.38858 22.8038C8.64651 22.8325 8.87883 22.6466 8.90749 22.3887C8.93614 22.1308 8.75029 21.8984 8.49236 21.8698C8.31136 21.8497 8.13448 21.8434 7.96471 21.8434C6.89348 21.8434 5.89693 22.1641 5.06586 22.7146C2.95967 22.6211 1.28645 20.8894 1.28645 18.7598C1.28645 16.6178 2.97914 14.8784 5.10257 14.8035C5.92501 15.337 6.90583 15.6468 7.95883 15.6468C8.1286 15.6468 8.30548 15.6405 8.48648 15.6204C8.74441 15.5918 8.93026 15.3594 8.90161 15.1015C8.87295 14.8436 8.64063 14.6577 8.3827 14.6864C8.24654 14.7015 8.10624 14.707 7.95883 14.707C5.57524 14.707 3.64176 12.7735 3.64176 10.3899C3.64176 8.10289 5.42179 6.23022 7.67153 6.08228C7.72432 11.3914 11.8391 15.1006 16.0878 15.1006H26.719C27.7044 15.1006 28.5029 14.3103 28.5162 13.3281C29.464 13.0941 30.1668 12.2382 30.1668 11.2181C30.1668 10.0179 29.1938 9.04487 27.9936 9.04487C26.7934 9.04487 25.8204 10.0179 25.8204 11.2181C25.8204 12.2752 26.5752 13.1561 27.5752 13.3511C27.5505 13.8034 27.1776 14.1608 26.719 14.1608H16.0878C12.3525 14.1608 8.61079 10.8464 8.61079 5.97891V5.97587L8.61076 5.97387L8.61076 5.97352V5.97329L8.61075 5.97169L8.61076 5.9675C8.61077 5.96157 8.61086 5.95155 8.61114 5.93779C8.61172 5.91024 8.6131 5.86766 8.6164 5.81217C8.623 5.70102 8.63721 5.53914 8.66768 5.34366C8.72897 4.95043 8.85411 4.4336 9.10631 3.92259C9.35748 3.41365 9.73039 2.91853 10.2865 2.54941C10.8399 2.18202 11.6035 1.92024 12.6694 1.92024C13.7416 1.92024 14.5174 2.16578 15.0834 2.51058C15.6505 2.8561 16.0329 3.31726 16.2927 3.78659C16.5539 4.2584 16.689 4.73498 16.7582 5.09684C16.7925 5.27679 16.8101 5.42556 16.819 5.52732C16.8234 5.57813 16.8257 5.61695 16.8268 5.64181C16.8274 5.65424 16.8277 5.66317 16.8278 5.66831L16.8279 5.67164V9.57587C16.2669 9.52358 15.7452 9.3333 15.3446 8.95453C14.8713 8.50696 14.4961 7.72891 14.4961 6.39001C14.4961 6.13049 14.2857 5.92012 14.0262 5.92012C13.7667 5.92012 13.5563 6.13049 13.5563 6.39001C13.5563 7.90566 13.9858 8.96309 14.699 9.63738C15.3132 10.2181 16.0846 10.4641 16.8279 10.5187V10.5368H20.8807C21.952 10.5368 22.8131 9.66731 22.8131 8.60435V5.61792C23.7904 5.40538 24.5223 4.53534 24.5223 3.49435C24.5223 2.29411 23.5493 1.32112 22.3491 1.32112C21.1488 1.32112 20.1759 2.29411 20.1759 3.49435C20.1759 4.53115 20.9019 5.39838 21.8733 5.61533V8.60435C21.8733 9.15075 21.4305 9.59701 20.8807 9.59701H17.7677L17.7676 5.65592C17.7675 5.65252 17.7674 5.64808 17.7673 5.64267C17.767 5.63186 17.7665 5.61708 17.7656 5.59862C17.7639 5.56171 17.7608 5.50999 17.7552 5.44547C17.7439 5.31661 17.7224 5.13589 17.6812 4.92047C17.5993 4.4916 17.4374 3.91389 17.1149 3.33139C16.7911 2.74641 16.3031 2.15322 15.5723 1.70801C14.8404 1.26208 13.8908 0.980469 12.6694 0.980469Z" fill="url(#paint0_linear_1247_2)"/>
<path d="M10.2848 15.1886C10.5443 15.1886 10.7547 15.399 10.7547 15.6585C10.7547 16.1807 10.9973 16.8082 11.425 17.3072C11.8496 17.8028 12.41 18.1196 13.0101 18.1196C13.0355 18.1196 13.0604 18.1216 13.0846 18.1254H20.2204C20.4438 17.1629 21.3068 16.4456 22.3373 16.4456C23.3679 16.4456 24.2309 17.1629 24.4543 18.1254H31.157C31.3804 17.1629 32.2434 16.4456 33.2739 16.4456C34.4742 16.4456 35.4472 17.4186 35.4472 18.6188C35.4472 19.8191 34.4742 20.792 33.2739 20.792C32.2267 20.792 31.3525 20.0513 31.1466 19.0652H24.4647C24.2588 20.0513 23.3846 20.792 22.3373 20.792C21.2901 20.792 20.4159 20.0513 20.21 19.0652H13.0101V19.0593C12.9769 19.0593 12.9438 19.0587 12.911 19.0575C12.8972 19.0587 12.8832 19.0593 12.8691 19.0593C12.269 19.0593 11.7086 19.3761 11.284 19.8717C10.8563 20.3707 10.6137 20.9982 10.6137 21.5204C10.6137 21.7799 10.4033 21.9903 10.1438 21.9903C9.88428 21.9903 9.6739 21.7799 9.6739 21.5204C9.6739 20.7386 10.0215 19.9006 10.5704 19.2602C10.8057 18.9856 11.0865 18.7378 11.4045 18.5439C11.144 18.3659 10.9112 18.152 10.7114 17.9187C10.1625 17.2783 9.81489 16.4403 9.81489 15.6585C9.81489 15.399 10.0253 15.1886 10.2848 15.1886Z" fill="url(#paint1_linear_1247_2)"/>
<defs>
<linearGradient id="paint0_linear_1247_2" x1="0.34668" y1="18.7451" x2="35.4472" y2="18.7451" gradientUnits="userSpaceOnUse">
<stop stop-color="#59EECA"/>
<stop offset="1" stop-color="#59D3EE"/>
</linearGradient>
<linearGradient id="paint1_linear_1247_2" x1="0.34668" y1="18.7451" x2="35.4472" y2="18.7451" gradientUnits="userSpaceOnUse">
<stop stop-color="#59EECA"/>
<stop offset="1" stop-color="#59D3EE"/>
</linearGradient>
</defs>
</svg>
