<svg width="15" height="14" viewBox="0 0 15 14" fill="none" xmlns="http://www.w3.org/2000/svg">
<path fill-rule="evenodd" clip-rule="evenodd" d="M9.90852 9.49701H6.3771V7.73152H9.90852C11.5336 7.73152 12.851 6.41412 12.851 4.78903C12.851 3.16394 11.5336 1.84655 9.90852 1.84655H6.3771V0.0810547H9.90852C12.5087 0.0810547 14.6165 2.18889 14.6165 4.78903C14.6165 7.38917 12.5087 9.49701 9.90852 9.49701ZM5.20016 3.96491L8.73159 3.96491V5.7304L5.20016 5.7304C3.57507 5.7304 2.25768 7.04779 2.25768 8.67288C2.25768 10.298 3.57507 11.6154 5.20016 11.6154H8.73159V13.3809H5.20016C2.60002 13.3809 0.492188 11.273 0.492188 8.67288C0.492188 6.07274 2.60002 3.96491 5.20016 3.96491Z" fill="url(#paint0_linear_1252_14)"/>
<defs>
<linearGradient id="paint0_linear_1252_14" x1="7.55434" y1="0.0810547" x2="7.55434" y2="13.3809" gradientUnits="userSpaceOnUse">
<stop stop-color="#59EECB"/>
<stop offset="1" stop-color="#59D4EE"/>
</linearGradient>
</defs>
</svg>
