<svg width="15" height="14" viewBox="0 0 15 14" fill="none" xmlns="http://www.w3.org/2000/svg">
<path fill-rule="evenodd" clip-rule="evenodd" d="M9.41633 9.76605H5.88491V8.00056H9.41633C11.0414 8.00056 12.3588 6.68316 12.3588 5.05807C12.3588 3.43298 11.0414 2.11559 9.41633 2.11559H5.88491V0.350098H9.41633C12.0165 0.350098 14.1243 2.45793 14.1243 5.05807C14.1243 7.65822 12.0165 9.76605 9.41633 9.76605ZM4.70798 4.23395L8.2394 4.23395V5.99944L4.70798 5.99944C3.08289 5.99944 1.76549 7.31684 1.76549 8.94193C1.76549 10.567 3.08289 11.8844 4.70798 11.8844H8.2394V13.6499H4.70798C2.10783 13.6499 0 11.5421 0 8.94193C0 6.34178 2.10783 4.23395 4.70798 4.23395Z" fill="url(#paint0_linear_1243_14)"/>
<defs>
<linearGradient id="paint0_linear_1243_14" x1="7.06215" y1="0.350098" x2="7.06215" y2="13.6499" gradientUnits="userSpaceOnUse">
<stop stop-color="#59EECB"/>
<stop offset="1" stop-color="#59D4EE"/>
</linearGradient>
</defs>
</svg>
